<?xml version="1.0" encoding="utf-8"?>
<!-- Generator: Adobe Illustrator 23.0.6, SVG Export Plug-In . SVG Version: 6.00 Build 0)  -->
<svg version="1.1" id="Calque_1" xmlns="http://www.w3.org/2000/svg" xmlns:xlink="http://www.w3.org/1999/xlink" x="0px" y="0px"
	 viewBox="0 0 276.31 245.63" style="enable-background:new 0 0 276.31 245.63;" xml:space="preserve">
<style type="text/css">
	.st0{fill:#141B4D;}
	.st1{fill:#FF5C39;}
	.st2{fill:none;}
</style>
<g>
	<g>
		<path class="st0" d="M94.43,81.97c-10.64-10.43-27.96-10.43-38.6,0s-10.64,27.41,0,37.84l5.34,5.23L45,140.88l-5.34-5.23
			c-19.56-19.17-19.56-50.36,0-69.53s51.38-19.17,70.93,0l5.34,5.23L99.77,87.2L94.43,81.97z"/>
	</g>
	<polygon class="st1" points="57.81,153.44 73.97,137.59 61.17,125.04 45,140.88 	"/>
	<polygon class="st1" points="112.58,99.75 128.74,83.91 115.93,71.35 99.77,87.2 	"/>
	<polygon class="st0" points="246.79,223.04 263.42,207.6 168.7,119.47 152.07,134.91 	"/>
</g>
<g>
	<g>
		<path class="st0" d="M105.55,116.17c10.64,10.43,27.96,10.43,38.6,0s10.64-27.41,0-37.84l-5.34-5.23l16.16-15.85l5.34,5.23
			c19.56,19.17,19.56,50.36,0,69.53s-51.38,19.17-70.93,0l-5.34-5.23l16.16-15.85L105.55,116.17z"/>
	</g>
	<polygon class="st1" points="142.18,44.7 126.01,60.55 138.82,73.1 154.99,57.26 	"/>
	<polygon class="st1" points="87.41,98.39 71.25,114.24 84.05,126.79 100.22,110.94 	"/>
</g>
<rect x="-78.33" y="168.13" class="st2" width="274.29" height="127.65"/>
</svg>
